<svg width="684" height="436" viewBox="0 0 684 436" fill="none" xmlns="http://www.w3.org/2000/svg">
<g filter="url(#filter0_d_203_3)">
<path d="M619.33 47.6663C600.936 58.1231 589.268 91.7414 597.857 106.851C606.447 121.96 632.042 112.838 650.435 102.381C668.829 91.9245 676.777 71.1993 668.187 56.0902C659.598 40.9811 637.724 37.2096 619.33 47.6663Z" fill="#C0B8EE"/>
<path d="M590.576 26.6028C575.351 41.2951 572.386 76.7572 584.454 89.2636C596.523 101.77 619.055 86.5848 634.281 71.8925C649.506 57.2002 652.065 35.1513 639.996 22.6449C627.927 10.1385 605.801 11.9105 590.576 26.6028Z" fill="#C0B8EE"/>
<path d="M382.493 108.051C371.619 158.658 443.024 216.245 514.317 231.565C581.211 262.389 611.533 239.757 622.407 189.15C633.282 138.543 602.564 59.4765 531.271 44.157C459.978 28.8376 393.368 57.4437 382.493 108.051Z" fill="#FFCA28"/>
<path d="M514.632 241.044L514.795 241.079L514.945 241.148C548.255 256.498 572.035 258.329 588.732 250.482C605.4 242.649 615.54 224.913 620.941 199.781C626.293 174.872 621.418 142.818 606.334 115.083C591.267 87.3779 566.091 64.1193 530.956 56.5694C495.578 48.9673 461.423 52.2795 434.817 63.7055C408.208 75.1332 389.268 94.6088 383.96 119.312C378.697 143.806 393.316 170.344 418.591 192.867C443.796 215.328 479.234 233.438 514.632 241.044Z" stroke="black" stroke-width="3"/>
<path d="M621.529 167.695L618.138 151.6L584.625 203.769C583.143 206.077 581.394 208.202 579.415 210.102L560.843 227.929C558.693 229.993 556.289 231.773 553.688 233.228L529.555 246.723L543.522 251.14L586.165 215.831C589.167 213.345 591.734 210.374 593.757 207.042L605.939 186.985L621.529 167.695Z" fill="black"/>
<path d="M593.647 95.7759L586.122 86.8824L557.863 123.825L524.702 156.881L492.109 189.24C490.602 190.736 488.962 192.092 487.209 193.29L452.813 216.818L463.455 223.021L501.766 194.972L533.633 161.043L564.704 132.034L593.647 95.7759Z" fill="black"/>
<path d="M554.223 66.978L545.549 60.202L521.276 98.3104L491.417 134.377L462.377 169.312C460.808 171.199 459.045 172.916 457.117 174.435L425.829 199.077L436.755 206.055L472.217 174.482L500.704 137.67L528.868 105.83L554.223 66.978Z" fill="black"/>
<path d="M611.908 126.561L606.703 114.931L560.089 177.841C559.062 179.226 557.935 180.534 556.716 181.753L527.663 210.806C526.363 212.106 524.962 213.302 523.474 214.382L494.513 235.403L509.622 238.595L563.88 191.14C566.5 188.849 568.763 186.179 570.596 183.22L587.687 155.619L611.908 126.561Z" fill="black"/>
<path d="M479.137 86.1983C479.137 89.9766 479.158 96.46 482.558 96.46C485.958 96.46 492.188 95.4495 492.188 91.6712C492.188 87.893 492.8 82.0936 489.399 82.0936C485.999 82.0936 479.137 82.4201 479.137 86.1983Z" fill="black"/>
<path d="M446.257 77.989C446.257 81.7672 446.277 88.2507 449.678 88.2507C453.078 88.2507 459.308 87.2401 459.308 83.4619C459.308 79.6836 459.919 73.8843 456.519 73.8843C453.119 73.8843 446.257 74.2107 446.257 77.989Z" fill="black"/>
<path d="M472.382 107.081C472.081 105.926 470.815 105.318 469.725 105.806L465.068 107.888C461.429 109.516 457.165 107.814 455.647 104.129L454.536 101.433C453.961 100.037 452.176 99.6312 451.054 100.642V100.642C450.265 101.352 450.101 102.526 450.664 103.425L452.709 106.688C455.565 111.246 461.241 113.153 466.27 111.244L471.199 109.373C472.121 109.024 472.631 108.035 472.382 107.081V107.081Z" fill="black"/>
<path d="M626.363 255.028L608.487 233.283L598.226 244.228L626.363 255.028Z" fill="black"/>
<path d="M623.907 55.3836C615.58 59.1225 608.204 68.5597 603.789 79.2072C599.364 89.8798 598.139 101.216 601.449 108.589C604.636 115.688 611.669 118.157 620.561 117.734C629.445 117.312 639.716 113.988 648.457 110.064C665.478 102.422 673.465 83.9675 666.746 69.0013C660.026 54.0352 640.927 47.7419 623.907 55.3836Z" stroke="black" stroke-width="3"/>
<path d="M595.551 38.8889C589.037 45.1754 585.35 56.4935 584.848 67.9643C584.344 79.4597 587.061 90.514 592.676 96.3323C598.084 101.937 605.509 101.901 613.682 98.5363C621.851 95.1733 630.329 88.6238 637.173 82.0198C650.488 69.1705 651.684 49.1809 640.285 37.3687C628.886 25.5565 608.867 26.0396 595.551 38.8889Z" stroke="black" stroke-width="3"/>
<path d="M38.375 177.188L39.125 141.562C42.625 141.312 45.2708 141.188 47.0625 141.188C52.9792 141.188 57.6875 142.521 61.1875 145.188C64.6875 147.812 66.4375 151.979 66.4375 157.688C66.4375 170.688 57.0833 177.188 38.375 177.188ZM39 224.75L38.375 181C41.7083 180.75 44.9583 180.625 48.125 180.625C57.0833 180.625 64.2083 182.271 69.5 185.562C74.7917 188.854 77.4375 194.042 77.4375 201.125C77.4375 205.292 76.6667 208.875 75.125 211.875C73.5833 214.833 71.6458 217.125 69.3125 218.75C67.0208 220.375 64.0417 221.667 60.375 222.625C56.7083 223.542 53.2917 224.125 50.125 224.375C47 224.625 43.2917 224.75 39 224.75ZM48.625 222.062C52.375 221.812 55.6667 221.375 58.5 220.75C61.375 220.125 64.1042 219.083 66.6875 217.625C69.3125 216.167 71.3333 214.062 72.75 211.312C74.1667 208.521 74.875 205.125 74.875 201.125C74.875 196.833 73.4167 193.229 70.5 190.312C67.5833 187.354 64.1458 185.354 60.1875 184.312C56.2292 183.229 52.1667 182.896 48 183.312L48.625 222.062ZM48.625 143.875L48.125 174.188C58.625 172.604 63.875 167.104 63.875 157.688C63.875 149.062 58.7917 144.458 48.625 143.875ZM12.5 229.375C20.625 229.125 30.3125 229 41.5625 229C45.3125 229 48.6875 228.917 51.6875 228.75C54.6875 228.583 58.2708 228.229 62.4375 227.688C66.6042 227.104 70.25 226.167 73.375 224.875C76.5 223.542 79.5 221.896 82.375 219.938C85.2917 217.938 87.5208 215.333 89.0625 212.125C90.6042 208.875 91.375 205.104 91.375 200.812C91.375 194.271 88.8125 188.917 83.6875 184.75C78.5625 180.542 72.25 177.833 64.75 176.625V176.125C69.625 174.583 73.5417 172.292 76.5 169.25C79.5 166.167 81 162.312 81 157.688C81 143.979 70.5833 137.125 49.75 137.125C48.125 137.125 45.3958 137.208 41.5625 137.375C37.7292 137.542 33.4792 137.625 28.8125 137.625C24.1875 137.625 18.7917 137.458 12.625 137.125C12.2917 137.875 12.2917 138.854 12.625 140.062C22.2083 140.979 27.0417 142.979 27.125 146.062C27.5417 155.854 27.75 167.5 27.75 181C27.75 194.208 27.5 207.354 27 220.438C26.9167 223.521 22.0833 225.521 12.5 226.438C12.1667 227.104 12.1667 228.083 12.5 229.375ZM10.875 134.438C16.9167 134.688 22.625 134.812 28 134.812C33.375 134.812 38.625 134.771 43.75 134.688C48.875 134.604 52.375 134.562 54.25 134.562C57.75 134.562 60.9167 134.688 63.75 134.938C66.625 135.188 69.8125 135.792 73.3125 136.75C76.8125 137.667 79.75 138.917 82.125 140.5C84.5417 142.083 86.5625 144.354 88.1875 147.312C89.8125 150.229 90.625 153.688 90.625 157.688C90.625 165.104 86.5208 171.083 78.3125 175.625C85.0625 177.583 90.5208 180.729 94.6875 185.062C98.8958 189.354 101 194.604 101 200.812C101 204.854 100.312 208.479 98.9375 211.688C97.5625 214.854 95.8125 217.5 93.6875 219.625C91.5625 221.708 88.8542 223.521 85.5625 225.062C82.2708 226.562 79.1042 227.729 76.0625 228.562C73.0208 229.354 69.5208 229.979 65.5625 230.438C61.6042 230.938 58.2083 231.25 55.375 231.375C52.5833 231.5 49.4792 231.562 46.0625 231.562C36.1458 231.562 24.375 231.729 10.75 232.062C9.70833 229.188 9.70833 226.5 10.75 224C19.7917 223.083 24.3542 221.854 24.4375 220.312C24.9375 207.229 25.1875 194.125 25.1875 181C25.1875 167.583 24.9792 155.979 24.5625 146.188C24.4792 144.646 19.8333 143.417 10.625 142.5C9.91667 139.833 10 137.146 10.875 134.438ZM165 137.625H133.562C128.354 137.625 121.042 137.458 111.625 137.125V140.062C121.208 140.979 126.042 142.979 126.125 146.062C126.542 155.854 126.75 167.5 126.75 181C126.75 194.208 126.5 207.354 126 220.438C125.917 223.521 121.083 225.521 111.5 226.438C111.333 227.896 111.333 228.875 111.5 229.375C119.542 229.125 138.229 229 167.562 229C177.812 229 185.521 227.25 190.688 223.75C195.854 220.25 200.521 214.229 204.688 205.688C204.354 205.021 203.625 204.479 202.5 204.062C194.917 218.146 180.938 225.188 160.562 225.188H138C137.583 206.979 137.375 193.667 137.375 185.25L157.75 185.125C159.542 185.125 161.208 185.417 162.75 186C164.333 186.583 165.583 187.188 166.5 187.812C167.458 188.396 168.562 189.542 169.812 191.25C171.062 192.958 171.938 194.208 172.438 195C172.938 195.75 173.812 197.333 175.062 199.75C176.312 202.167 177.146 203.729 177.562 204.438C178.854 203.896 179.667 203.333 180 202.75C175.833 195.667 173.75 189.146 173.75 183.188C173.75 180.604 174.333 177.458 175.5 173.75C176.708 170.042 178.208 166.646 180 163.562C179.667 162.979 178.854 162.438 177.562 161.938C177.229 162.521 176.562 163.771 175.562 165.688C174.604 167.604 173.958 168.854 173.625 169.438C173.333 169.979 172.729 171 171.812 172.5C170.938 174 170.25 175 169.75 175.5C169.25 176 168.5 176.75 167.5 177.75C166.542 178.708 165.604 179.375 164.688 179.75C163.812 180.083 162.771 180.396 161.562 180.688C160.354 180.979 159.083 181.125 157.75 181.125C148.792 181.125 142 181.042 137.375 180.875C137.375 170.792 137.625 157.646 138.125 141.438H158C178.375 141.438 192.354 148.479 199.938 162.562C201.062 162.146 201.792 161.583 202.125 160.875C197.958 152.375 193.292 146.375 188.125 142.875C182.958 139.375 175.25 137.625 165 137.625ZM173.625 164L176.312 158.75C179.812 160 182.021 161.604 182.938 163.562C181.062 166.812 179.479 170.333 178.188 174.125C176.938 177.875 176.312 180.896 176.312 183.188C176.312 188.729 178.521 195.25 182.938 202.75C181.938 204.875 179.812 206.5 176.562 207.625C175.021 205.083 173.896 203.125 173.188 201.75C171.479 198.917 170.125 196.812 169.125 195.438C168.167 194.021 166.708 192.604 164.75 191.188C162.792 189.771 160.625 189.021 158.25 188.938H147C147 198.146 147.167 209.375 147.5 222.625H160.438C171.021 222.625 179.625 220.562 186.25 216.438C192.917 212.271 197.958 207.062 201.375 200.812C204.875 202.104 207.083 203.729 208 205.688C202.542 214.729 199.312 223.354 198.312 231.562H146.438C129.979 231.562 117.75 231.688 109.75 231.938C108.875 229.229 108.833 226.583 109.625 224C118.75 223.083 123.354 221.854 123.438 220.312C123.938 207.229 124.188 194.125 124.188 181C124.188 167.583 123.979 155.979 123.562 146.188C123.479 144.646 118.833 143.417 109.625 142.5C108.833 139.583 108.917 136.896 109.875 134.438C122.667 134.854 131.146 135.062 135.312 135.062H195.75C196.75 143.229 200 151.833 205.5 160.875C204.542 162.875 202.312 164.5 198.812 165.75C195.396 159.542 190.354 154.375 183.688 150.25C177.062 146.083 168.458 144 157.875 144H147.625C147.208 158.958 147 170.438 147 178.438C149.625 178.521 153.417 178.562 158.375 178.562C161.875 178.562 164.667 177.396 166.75 175.062C168.833 172.688 171.125 169 173.625 164ZM272.125 137.625H240.688C235.479 137.625 228.167 137.458 218.75 137.125V140.062C228.333 140.979 233.167 142.979 233.25 146.062C233.667 155.854 233.875 167.5 233.875 181C233.875 194.208 233.625 207.354 233.125 220.438C233.042 223.521 228.208 225.521 218.625 226.438C218.458 227.896 218.458 228.875 218.625 229.375C226.667 229.125 245.354 229 274.688 229C284.938 229 292.646 227.25 297.812 223.75C302.979 220.25 307.646 214.229 311.812 205.688C311.479 205.021 310.75 204.479 309.625 204.062C302.042 218.146 288.062 225.188 267.688 225.188H245.125C244.708 206.979 244.5 193.667 244.5 185.25L264.875 185.125C266.667 185.125 268.333 185.417 269.875 186C271.458 186.583 272.708 187.188 273.625 187.812C274.583 188.396 275.688 189.542 276.938 191.25C278.188 192.958 279.062 194.208 279.562 195C280.062 195.75 280.938 197.333 282.188 199.75C283.438 202.167 284.271 203.729 284.688 204.438C285.979 203.896 286.792 203.333 287.125 202.75C282.958 195.667 280.875 189.146 280.875 183.188C280.875 180.604 281.458 177.458 282.625 173.75C283.833 170.042 285.333 166.646 287.125 163.562C286.792 162.979 285.979 162.438 284.688 161.938C284.354 162.521 283.688 163.771 282.688 165.688C281.729 167.604 281.083 168.854 280.75 169.438C280.458 169.979 279.854 171 278.938 172.5C278.062 174 277.375 175 276.875 175.5C276.375 176 275.625 176.75 274.625 177.75C273.667 178.708 272.729 179.375 271.812 179.75C270.938 180.083 269.896 180.396 268.688 180.688C267.479 180.979 266.208 181.125 264.875 181.125C255.917 181.125 249.125 181.042 244.5 180.875C244.5 170.792 244.75 157.646 245.25 141.438H265.125C285.5 141.438 299.479 148.479 307.062 162.562C308.188 162.146 308.917 161.583 309.25 160.875C305.083 152.375 300.417 146.375 295.25 142.875C290.083 139.375 282.375 137.625 272.125 137.625ZM280.75 164L283.438 158.75C286.938 160 289.146 161.604 290.062 163.562C288.188 166.812 286.604 170.333 285.312 174.125C284.062 177.875 283.438 180.896 283.438 183.188C283.438 188.729 285.646 195.25 290.062 202.75C289.062 204.875 286.938 206.5 283.688 207.625C282.146 205.083 281.021 203.125 280.312 201.75C278.604 198.917 277.25 196.812 276.25 195.438C275.292 194.021 273.833 192.604 271.875 191.188C269.917 189.771 267.75 189.021 265.375 188.938H254.125C254.125 198.146 254.292 209.375 254.625 222.625H267.562C278.146 222.625 286.75 220.562 293.375 216.438C300.042 212.271 305.083 207.062 308.5 200.812C312 202.104 314.208 203.729 315.125 205.688C309.667 214.729 306.438 223.354 305.438 231.562H253.562C237.104 231.562 224.875 231.688 216.875 231.938C216 229.229 215.958 226.583 216.75 224C225.875 223.083 230.479 221.854 230.562 220.312C231.062 207.229 231.312 194.125 231.312 181C231.312 167.583 231.104 155.979 230.688 146.188C230.604 144.646 225.958 143.417 216.75 142.5C215.958 139.583 216.042 136.896 217 134.438C229.792 134.854 238.271 135.062 242.438 135.062H302.875C303.875 143.229 307.125 151.833 312.625 160.875C311.667 162.875 309.438 164.5 305.938 165.75C302.521 159.542 297.479 154.375 290.812 150.25C284.188 146.083 275.583 144 265 144H254.75C254.333 158.958 254.125 170.438 254.125 178.438C256.75 178.521 260.542 178.562 265.5 178.562C269 178.562 271.792 177.396 273.875 175.062C275.958 172.688 278.25 169 280.75 164ZM47.75 311.5C45.625 311.583 44.375 312.083 44 313C43.625 313.875 43.8958 315.458 44.8125 317.75L64.0625 365.125L71.6875 344.625L60.9375 317.625C60.0208 315.417 58.8958 313.896 57.5625 313.062C56.2292 312.188 54.125 311.667 51.25 311.5C50.2083 308.833 50.2083 306.354 51.25 304.062H95.375C96.4167 306.354 96.4167 308.833 95.375 311.5C90.875 311.667 87.9375 312.292 86.5625 313.375C85.1875 314.417 84.8542 315.875 85.5625 317.75L103.438 364.75L121 317.75C121.833 315.458 121.542 313.938 120.125 313.188C118.75 312.396 115.958 311.833 111.75 311.5C110.75 308.833 110.75 306.354 111.75 304.062H148.875C149.917 306.354 149.917 308.833 148.875 311.5C142.583 311.917 138.542 312.542 136.75 313.375C134.875 314.333 133.542 315.792 132.75 317.75L100.75 402.375H94.375L77.625 359.188L61.3125 402.375H55.0625L20.125 317.75C19.2917 315.708 17.8125 314.271 15.6875 313.438C13.6042 312.562 10.4792 311.917 6.3125 311.5C5.27083 308.833 5.27083 306.354 6.3125 304.062H47.75C48.7917 306.354 48.7917 308.833 47.75 311.5ZM45.625 306.125H8.5C7.95833 306.958 7.95833 307.938 8.5 309.062C16 309.812 20.6458 312.375 22.4375 316.75L56.75 399.812H59.5625L77.3125 352.188L96.1875 399.812H99L130.75 315.938C131.667 313.562 133.333 311.917 135.75 311C138.208 310.042 141.688 309.396 146.188 309.062C146.729 307.938 146.729 306.958 146.188 306.125H114.438C113.938 306.958 113.938 307.938 114.438 309.062C119.396 309.646 122.438 310.417 123.562 311.375C124.938 312.458 125.229 313.979 124.438 315.938L100.125 381.375L75.4375 316.75C74.4792 314.5 75.4583 312.75 78.375 311.5C81.2917 310.208 86.0625 309.396 92.6875 309.062C93.2292 307.938 93.2292 306.958 92.6875 306.125H53.4375C52.8958 306.958 52.8958 307.938 53.4375 309.062C56.0625 309.312 58.125 310 59.625 311.125C61.125 312.208 62.375 314.083 63.375 316.75L74.375 344.625L60.6875 381.375L34.4375 316.75C33.0208 313.917 33.1667 312.042 34.875 311.125C36.5833 310.167 40.1667 309.479 45.625 309.062C46.125 307.938 46.125 306.958 45.625 306.125ZM179.75 389.438C179.417 372.021 179.25 358.875 179.25 350C179.25 339.75 179.458 328.104 179.875 315.062C179.958 311.896 186.917 309.896 200.75 309.062C201 308.271 201 307.292 200.75 306.125C189.833 306.458 181.312 306.625 175.188 306.625C170.062 306.625 162.792 306.458 153.375 306.125C153.042 306.875 153.042 307.854 153.375 309.062C162.958 309.979 167.792 311.979 167.875 315.062C168.292 324.854 168.5 336.5 168.5 350C168.5 363.208 168.25 376.354 167.75 389.438C167.667 392.521 162.833 394.521 153.25 395.438C152.917 396.104 152.917 397.083 153.25 398.375C160.333 398.125 167.604 398 175.062 398C183.938 398 192.458 398.125 200.625 398.375C200.958 397.708 200.958 396.729 200.625 395.438C186.792 394.604 179.833 392.604 179.75 389.438ZM151.375 311.5C150.667 308.75 150.75 306.062 151.625 303.438C155.292 303.438 160.25 303.542 166.5 303.75C172.792 303.958 177.167 304.062 179.625 304.062C181.417 304.062 184.875 304.021 190 303.938C195.125 303.854 199.562 303.812 203.312 303.812C204.104 306.188 204.146 308.75 203.438 311.5C194.229 312.417 189.583 313.646 189.5 315.188C189 325.604 188.75 338.75 188.75 354.625C188.75 369.958 188.958 381.521 189.375 389.312C189.375 389.562 189.479 389.812 189.688 390.062C189.896 390.312 190.188 390.521 190.562 390.688C190.979 390.854 191.396 391.042 191.812 391.25C192.229 391.417 192.792 391.583 193.5 391.75C194.25 391.917 194.875 392.062 195.375 392.188C195.875 392.312 196.542 392.438 197.375 392.562C198.25 392.688 198.938 392.792 199.438 392.875C199.979 392.958 200.688 393.042 201.562 393.125C202.479 393.208 203.104 393.292 203.438 393.375C204.146 395.708 204.021 398.271 203.062 401.062C187.688 400.729 178.354 400.562 175.062 400.562C172.812 400.562 164.958 400.729 151.5 401.062C150.458 398.188 150.458 395.5 151.5 393C160.542 392.083 165.104 390.854 165.188 389.312C165.688 378.896 165.938 365.792 165.938 350C165.938 336.583 165.729 324.979 165.312 315.188C165.229 313.646 160.583 312.417 151.375 311.5ZM211.75 334.75C208.583 333.5 206.5 331.875 205.5 329.875C207.875 325.375 209.458 322.354 210.25 320.812C211.083 319.271 212.021 316.917 213.062 313.75C214.146 310.542 214.896 307.312 215.312 304.062H258.625H310.688C311.729 312.229 314.979 320.833 320.438 329.875C319.479 331.875 317.25 333.5 313.75 334.75C310.333 328.542 305.292 323.375 298.625 319.25C292 315.083 283.396 313 272.812 313C272.479 323.333 272.312 335.583 272.312 349.75C272.312 367.833 272.521 381.021 272.938 389.312C273.021 390.854 277.667 392.083 286.875 393C287.583 395.667 287.5 398.354 286.625 401.062C273.125 400.729 265.271 400.562 263.062 400.562C259.729 400.562 250.396 400.729 235.062 401.062C234.021 398.188 234.021 395.5 235.062 393C244.104 392.083 248.667 390.896 248.75 389.438C249.167 378.938 249.375 365.708 249.375 349.75C249.375 336.417 249.208 324.292 248.875 313.375C231.542 315.625 219.167 322.75 211.75 334.75ZM229.438 310.812L251.312 310.188C251.729 324.021 251.938 337.208 251.938 349.75C251.938 365.875 251.729 379.104 251.312 389.438C251.229 392.521 246.396 394.521 236.812 395.438C236.479 396.104 236.479 397.083 236.812 398.375C243.896 398.125 251.167 398 258.625 398C267.5 398 276.021 398.125 284.188 398.375C284.521 397.625 284.521 396.646 284.188 395.438C270.354 394.604 263.396 392.604 263.312 389.438C262.896 375.604 262.688 362.375 262.688 349.75C262.688 333.708 262.896 320.521 263.312 310.188L272.938 310.438C293.688 310.938 307.688 317.979 314.938 331.562C316.021 331.146 316.729 330.583 317.062 329.875C312.896 321.375 308.229 315.375 303.062 311.875C297.896 308.375 290.208 306.625 280 306.625H258.625C254.083 306.625 247.229 306.604 238.062 306.562C228.896 306.521 222.083 306.5 217.625 306.5C217.458 307.917 217.167 309.396 216.75 310.938C216.333 312.479 215.938 313.792 215.562 314.875C215.229 315.917 214.646 317.312 213.812 319.062C213.021 320.812 212.479 322 212.188 322.625C211.896 323.208 211.229 324.5 210.188 326.5C209.188 328.5 208.604 329.625 208.438 329.875C208.771 330.583 209.5 331.146 210.625 331.562C213.583 326.688 215.875 323.083 217.5 320.75C219.125 318.417 221.042 316.188 223.25 314.062C225.5 311.896 227.562 310.812 229.438 310.812ZM393.062 389.438C393.062 392.521 388.25 394.521 378.625 395.438C378.292 396.104 378.292 397.083 378.625 398.375C385.708 398.125 392.958 398 400.375 398C409.25 398 417.792 398.125 426 398.375C426.333 397.625 426.333 396.646 426 395.438C412.167 394.604 405.208 392.604 405.125 389.438C404.667 379.104 404.438 366.729 404.438 352.312C404.438 337.812 404.667 325.396 405.125 315.062C405.208 311.896 412.167 309.896 426 309.062C426.417 308.021 426.417 307.042 426 306.125C415.042 306.458 406.5 306.625 400.375 306.625C395.25 306.625 388 306.458 378.625 306.125C378.375 307.125 378.375 308.104 378.625 309.062C388.167 309.979 392.979 311.979 393.062 315.062C393.312 322.729 393.521 334.292 393.688 349.75C386.021 350 378.771 350.125 371.938 350.125C360.521 350.125 352.25 350.042 347.125 349.875C347.125 335.875 347.375 324.271 347.875 315.062C347.958 311.896 354.917 309.896 368.75 309.062C369 308.271 369 307.292 368.75 306.125C357.833 306.458 349.292 306.625 343.125 306.625C338.042 306.625 330.792 306.458 321.375 306.125C321.042 306.875 321.042 307.854 321.375 309.062C330.958 309.979 335.792 311.979 335.875 315.062C336.292 324.854 336.5 336.5 336.5 350C336.5 363.208 336.25 376.354 335.75 389.438C335.667 392.521 330.833 394.521 321.25 395.438C320.917 396.104 320.917 397.083 321.25 398.375C328.333 398.125 335.583 398 343 398C351.875 398 360.417 398.125 368.625 398.375C368.958 397.708 368.958 396.729 368.625 395.438C354.792 394.604 347.833 392.604 347.75 389.438C347.333 376.896 347.125 365.167 347.125 354.25C357.375 354.042 365.646 353.938 371.938 353.938C378.771 353.938 386.021 354.083 393.688 354.375C393.604 363.667 393.396 375.354 393.062 389.438ZM390.5 389.438C390.833 372.854 391.042 362.396 391.125 358.062C382.958 357.896 376.562 357.812 371.938 357.812C368.354 357.812 365 357.833 361.875 357.875C358.792 357.917 357.083 357.938 356.75 357.938C356.75 367.562 356.958 378.021 357.375 389.312C357.375 389.562 357.458 389.812 357.625 390.062C357.792 390.312 358.083 390.521 358.5 390.688C358.917 390.854 359.333 391.042 359.75 391.25C360.208 391.417 360.771 391.583 361.438 391.75C362.146 391.917 362.771 392.062 363.312 392.188C363.854 392.312 364.542 392.438 365.375 392.562C366.25 392.688 366.938 392.792 367.438 392.875C367.979 392.958 368.688 393.042 369.562 393.125C370.479 393.208 371.104 393.292 371.438 393.375C372.104 395.708 371.979 398.271 371.062 401.062C355.688 400.729 346.333 400.562 343 400.562C340.792 400.562 332.958 400.729 319.5 401.062C318.458 398.188 318.458 395.5 319.5 393C328.542 392.083 333.104 390.854 333.188 389.312C333.688 376.229 333.938 363.125 333.938 350C333.938 336.583 333.729 324.979 333.312 315.188C333.229 313.646 328.583 312.417 319.375 311.5C318.667 308.833 318.75 306.146 319.625 303.438C323.292 303.438 328.25 303.542 334.5 303.75C340.792 303.958 345.167 304.062 347.625 304.062C349.417 304.062 352.875 304.021 358 303.938C363.125 303.854 367.562 303.812 371.312 303.812C372.062 306.188 372.104 308.75 371.438 311.5C362.229 312.417 357.583 313.646 357.5 315.188C357 326.688 356.75 337.438 356.75 347.438C360.75 347.688 365.812 347.729 371.938 347.562L391.125 347.312C390.958 333.729 390.75 323.021 390.5 315.188C390.417 313.646 385.771 312.417 376.562 311.5C375.812 308.583 375.896 305.896 376.812 303.438C382.854 303.854 391.042 304.062 401.375 304.062C403.333 304.062 407.312 304.021 413.312 303.938C419.354 303.854 424.417 303.812 428.5 303.812C429.292 306.188 429.354 308.75 428.688 311.5C419.438 312.417 414.771 313.646 414.688 315.188C414.271 325.521 414.062 337.896 414.062 352.312C414.062 366.646 414.271 378.979 414.688 389.312C414.771 390.854 419.438 392.083 428.688 393C429.354 395.667 429.25 398.354 428.375 401.062C414.917 400.729 407.083 400.562 404.875 400.562C401.542 400.562 392.188 400.729 376.812 401.062C375.812 398.188 375.812 395.5 376.812 393C385.938 392.083 390.5 390.896 390.5 389.438ZM481 315.062C480.917 313.521 476.271 312.292 467.062 311.375C466.688 310.083 466.5 308.833 466.5 307.625C466.5 306.25 466.771 304.792 467.312 303.25C470.979 303.25 475.938 303.375 482.188 303.625C488.479 303.833 492.854 303.938 495.312 303.938C497.104 303.938 500.562 303.896 505.688 303.812C510.812 303.729 515.25 303.688 519 303.688C519.417 304.938 519.625 306.208 519.625 307.5C519.625 308.708 519.458 310 519.125 311.375C509.917 312.292 505.271 313.521 505.188 315.062C505.021 317.979 504.938 333.208 504.938 360.75C504.938 371.25 506.583 379 509.875 384C513.167 389 518.646 391.708 526.312 392.125C534.396 391.625 540.625 388.688 545 383.312C549.417 377.896 551.625 370.375 551.625 360.75C551.625 340.958 551.5 326.062 551.25 316.062C551.167 314.021 546.688 312.354 537.812 311.062C537.479 310.062 537.312 309.042 537.312 308C537.312 306.75 537.604 305.271 538.188 303.562C549.979 303.896 557.021 304.062 559.312 304.062C563.771 304.062 569.458 303.938 576.375 303.688C576.958 305.479 577.25 306.792 577.25 307.625C577.25 308.917 576.958 310.208 576.375 311.5C567.75 312.333 563.396 313.854 563.312 316.062C562.896 324.104 562.688 339 562.688 360.75C562.688 367.25 561.833 373.042 560.125 378.125C558.417 383.167 556.229 387.229 553.562 390.312C550.938 393.396 547.875 395.938 544.375 397.938C540.875 399.938 537.5 401.292 534.25 402C531 402.75 527.708 403.125 524.375 403.125C517.708 403.125 511.938 402.521 507.062 401.312C502.229 400.146 497.792 398.062 493.75 395.062C489.75 392.062 486.729 387.708 484.688 382C482.646 376.292 481.625 369.208 481.625 360.75C481.625 340.375 481.417 325.146 481 315.062ZM495.562 314.938C495.646 311.771 502.604 309.771 516.438 308.938C516.688 308.146 516.688 307.146 516.438 305.938C505.521 306.312 497 306.5 490.875 306.5C485.75 306.5 478.479 306.312 469.062 305.938C468.729 306.729 468.729 307.729 469.062 308.938C470.938 309.104 472.479 309.271 473.688 309.438C474.896 309.604 476.375 309.896 478.125 310.312C479.875 310.729 481.208 311.354 482.125 312.188C483.083 312.979 483.562 313.938 483.562 315.062C483.979 328.271 484.188 343.5 484.188 360.75C484.188 368.667 485.146 375.333 487.062 380.75C488.979 386.125 491.833 390.229 495.625 393.062C499.458 395.854 503.625 397.792 508.125 398.875C512.667 400 518.083 400.562 524.375 400.562C527.458 400.562 530.521 400.208 533.562 399.5C536.646 398.833 539.812 397.562 543.062 395.688C546.312 393.812 549.167 391.438 551.625 388.562C554.125 385.646 556.167 381.792 557.75 377C559.333 372.208 560.125 366.792 560.125 360.75C560.125 340.792 560.333 325.854 560.75 315.938C560.917 312.271 565.521 310.021 574.562 309.188C574.896 308.479 574.896 307.5 574.562 306.25C566.729 306.5 561.146 306.625 557.812 306.625C552.604 306.625 546.667 306.5 540 306.25C539.667 306.917 539.667 307.896 540 309.188C549.125 310.021 553.729 312.271 553.812 315.938C554.062 325.938 554.188 340.875 554.188 360.75C554.188 371.667 551.583 380.062 546.375 385.938C541.208 391.771 533.792 394.688 524.125 394.688C513.625 394.688 506.188 392 501.812 386.625C497.479 381.25 495.312 372.625 495.312 360.75C495.312 335.833 495.396 320.562 495.562 314.938ZM624.75 301.5C630.708 301.5 636.188 302.333 641.188 304C646.188 305.667 650.688 306.75 654.688 307.25C652.479 315 652.396 323.354 654.438 332.312C652.312 334.104 649.875 335.146 647.125 335.438C646.792 334.646 646.188 333 645.312 330.5C644.479 327.958 643.667 325.875 642.875 324.25C642.125 322.625 641.062 320.771 639.688 318.688C638.354 316.604 636.562 314.958 634.312 313.75C632.104 312.5 629.562 311.646 626.688 311.188C622.479 311.562 619.229 312.854 616.938 315.062C614.646 317.271 613.5 320.125 613.5 323.625C613.5 327.208 614.417 330.167 616.25 332.5C618.083 334.792 620.458 336.521 623.375 337.688C626.333 338.812 629.583 339.812 633.125 340.688C636.667 341.521 640.188 342.562 643.688 343.812C647.188 345.021 650.396 346.625 653.312 348.625C656.271 350.583 658.667 353.521 660.5 357.438C662.333 361.354 663.25 366.125 663.25 371.75C663.25 378.583 661.271 384.458 657.312 389.375C653.354 394.292 648.688 397.812 643.312 399.938C637.938 402.062 632.438 403.125 626.812 403.125C614.438 403.125 602.188 400.396 590.062 394.938C590.312 389.562 590.438 386.271 590.438 385.062C590.438 378.312 589.792 371.062 588.5 363.312C592.25 361.521 596.438 361.438 601.062 363.062C602.604 372.521 605.583 379.771 610 384.812C614.458 389.854 619.333 392.667 624.625 393.25C629.583 392.917 633.396 391.312 636.062 388.438C638.771 385.521 640.125 381.833 640.125 377.375C640.125 373.625 639.25 370.458 637.5 367.875C635.75 365.25 633.438 363.229 630.562 361.812C627.688 360.354 624.562 359.042 621.188 357.875C617.854 356.708 614.479 355.479 611.062 354.188C607.646 352.854 604.5 351.271 601.625 349.438C598.792 347.604 596.5 345.042 594.75 341.75C593 338.458 592.125 334.458 592.125 329.75C592.125 325.5 592.792 321.688 594.125 318.312C595.5 314.938 597.271 312.229 599.438 310.188C601.646 308.146 604.208 306.438 607.125 305.062C610.083 303.688 613 302.75 615.875 302.25C618.792 301.75 621.75 301.5 624.75 301.5ZM624.75 304.062C621.25 304.062 617.854 304.479 614.562 305.312C611.271 306.104 608.062 307.417 604.938 309.25C601.854 311.083 599.375 313.771 597.5 317.312C595.625 320.854 594.688 325 594.688 329.75C594.688 333.958 595.562 337.583 597.312 340.625C599.062 343.625 601.354 345.958 604.188 347.625C607.062 349.292 610.208 350.771 613.625 352.062C617.042 353.312 620.417 354.583 623.75 355.875C627.125 357.167 630.25 358.625 633.125 360.25C636 361.875 638.312 364.146 640.062 367.062C641.812 369.938 642.688 373.375 642.688 377.375C642.688 382.917 640.917 387.396 637.375 390.812C633.833 394.229 628.812 395.938 622.312 395.938C616.062 395.938 610.25 393.333 604.875 388.125C599.5 382.917 595.958 375.125 594.25 364.75C593.417 364.208 592.438 364.208 591.312 364.75C592.438 371.292 593 378.062 593 385.062C593 387.021 592.917 389.792 592.75 393.375C603.083 398.167 612.938 400.562 622.312 400.562C630.062 400.562 637.229 398.271 643.812 393.688C650.396 389.062 653.688 382.604 653.688 374.312C653.688 369.604 652.771 365.625 650.938 362.375C649.104 359.083 646.708 356.521 643.75 354.688C640.792 352.854 637.542 351.271 634 349.938C630.458 348.604 626.938 347.354 623.438 346.188C619.938 344.979 616.708 343.646 613.75 342.188C610.833 340.729 608.458 338.667 606.625 336C604.792 333.292 603.875 330.021 603.875 326.188C603.875 320.812 605.688 316.521 609.312 313.312C612.938 310.104 618.083 308.5 624.75 308.5C636.333 308.5 644.312 316.521 648.688 332.562C649.979 332.771 650.875 332.479 651.375 331.688C650 321.521 646.979 314.375 642.312 310.25C637.688 306.125 631.833 304.062 624.75 304.062Z" fill="black"/>
</g>
<defs>
<filter id="filter0_d_203_3" x="0.75" y="14.3113" width="674.898" height="396.814" filterUnits="userSpaceOnUse" color-interpolation-filters="sRGB">
<feFlood flood-opacity="0" result="BackgroundImageFix"/>
<feColorMatrix in="SourceAlpha" type="matrix" values="0 0 0 0 0 0 0 0 0 0 0 0 0 0 0 0 0 0 127 0" result="hardAlpha"/>
<feOffset dy="4"/>
<feGaussianBlur stdDeviation="2"/>
<feComposite in2="hardAlpha" operator="out"/>
<feColorMatrix type="matrix" values="0 0 0 0 0 0 0 0 0 0 0 0 0 0 0 0 0 0 0.25 0"/>
<feBlend mode="normal" in2="BackgroundImageFix" result="effect1_dropShadow_203_3"/>
<feBlend mode="normal" in="SourceGraphic" in2="effect1_dropShadow_203_3" result="shape"/>
</filter>
</defs>
</svg>
